<svg width="2487" height="416" viewBox="0 0 2487 416" fill="none" xmlns="http://www.w3.org/2000/svg">
<path d="M144.984 273.808L111.192 341.392L76.376 410H0.6L205.4 0.399994L342.104 273.808H265.304L205.4 153.488L144.984 273.808ZM375.896 341.904L410.2 410H333.912L300.12 341.904H375.896ZM607.02 130.448C612.14 130.448 617.601 130.789 623.404 131.472C629.548 131.813 634.839 132.496 639.276 133.52L633.644 174.992C629.207 173.968 624.257 173.115 618.796 172.432C613.676 171.749 608.727 171.408 603.948 171.408C593.367 171.408 583.297 173.627 573.74 178.064C564.183 182.501 555.649 188.816 548.14 197.008C540.631 204.859 534.657 214.416 530.22 225.68C526.124 236.944 524.076 249.573 524.076 263.568V410H479.02V135.568H515.884L521.004 185.744H523.052C528.855 175.504 535.852 166.288 544.044 158.096C552.236 149.563 561.623 142.907 572.204 138.128C582.785 133.008 594.391 130.448 607.02 130.448ZM790.6 415.12C766.365 415.12 744.691 410.171 725.576 400.272C706.803 390.373 691.955 375.013 681.032 354.192C670.451 333.371 665.16 306.747 665.16 274.32C665.16 240.528 670.792 213.051 682.056 191.888C693.32 170.725 708.509 155.195 727.624 145.296C747.08 135.397 769.096 130.448 793.672 130.448C807.667 130.448 821.149 131.984 834.12 135.056C847.091 137.787 857.672 141.2 865.864 145.296L852.04 182.672C843.848 179.6 834.291 176.699 823.368 173.968C812.445 171.237 802.205 169.872 792.648 169.872C774.216 169.872 759.027 173.797 747.08 181.648C735.133 189.499 726.259 201.104 720.456 216.464C714.653 231.824 711.752 250.939 711.752 273.808C711.752 295.653 714.653 314.256 720.456 329.616C726.259 344.976 734.963 356.581 746.568 364.432C758.173 372.283 772.68 376.208 790.088 376.208C805.107 376.208 818.248 374.672 829.512 371.6C841.117 368.528 851.699 364.773 861.256 360.336V400.272C852.04 405.051 841.8 408.635 830.536 411.024C819.613 413.755 806.301 415.12 790.6 415.12ZM971.576 135.056C971.576 141.541 971.235 148.197 970.552 155.024C970.211 161.851 969.699 167.995 969.016 173.456H972.088C977.891 163.899 985.229 156.048 994.104 149.904C1002.98 143.76 1012.88 139.152 1023.8 136.08C1034.72 132.667 1045.99 130.96 1057.59 130.96C1079.78 130.96 1098.21 134.544 1112.89 141.712C1127.91 148.539 1139.17 159.291 1146.68 173.968C1154.19 188.645 1157.94 207.76 1157.94 231.312V410H1113.4V234.384C1113.4 212.197 1108.45 195.643 1098.55 184.72C1088.65 173.797 1073.12 168.336 1051.96 168.336C1031.48 168.336 1015.44 172.261 1003.83 180.112C992.227 187.621 983.864 198.885 978.744 213.904C973.965 228.581 971.576 246.672 971.576 268.176V410H926.52V20.88H971.576V135.056ZM1288.08 135.568V410H1243.02V135.568H1288.08ZM1266.06 32.656C1272.89 32.656 1278.86 35.0453 1283.98 39.824C1289.44 44.2613 1292.17 51.4293 1292.17 61.328C1292.17 70.8853 1289.44 78.0533 1283.98 82.832C1278.86 87.6107 1272.89 90 1266.06 90C1258.55 90 1252.24 87.6107 1247.12 82.832C1242 78.0533 1239.44 70.8853 1239.44 61.328C1239.44 51.4293 1242 44.2613 1247.12 39.824C1252.24 35.0453 1258.55 32.656 1266.06 32.656ZM1331.5 204.688H1399.6H1604.4V273.808H1399.6V410H1331.5V204.688ZM1331.5 0.399994H1604.4V69.008H1399.6L1331.5 0.399994ZM1746.08 410H1701.02V20.88H1746.08V410ZM2071.61 272.272C2071.61 295.141 2068.54 315.451 2062.4 333.2C2056.59 350.608 2048.06 365.456 2036.8 377.744C2025.87 390.032 2012.39 399.419 1996.35 405.904C1980.65 412.048 1963.07 415.12 1943.61 415.12C1925.52 415.12 1908.8 412.048 1893.44 405.904C1878.08 399.419 1864.76 390.032 1853.5 377.744C1842.24 365.456 1833.36 350.608 1826.88 333.2C1820.73 315.451 1817.66 295.141 1817.66 272.272C1817.66 241.893 1822.78 216.293 1833.02 195.472C1843.26 174.309 1857.94 158.267 1877.05 147.344C1896.17 136.08 1918.87 130.448 1945.15 130.448C1970.07 130.448 1991.91 136.08 2010.68 147.344C2029.8 158.267 2044.65 174.309 2055.23 195.472C2066.15 216.293 2071.61 241.893 2071.61 272.272ZM1864.25 272.272C1864.25 293.776 1866.98 312.549 1872.44 328.592C1878.25 344.293 1887.12 356.411 1899.07 364.944C1911.01 373.477 1926.2 377.744 1944.64 377.744C1963.07 377.744 1978.26 373.477 1990.2 364.944C2002.15 356.411 2010.85 344.293 2016.32 328.592C2022.12 312.549 2025.02 293.776 2025.02 272.272C2025.02 250.427 2022.12 231.824 2016.32 216.464C2010.51 201.104 2001.64 189.328 1989.69 181.136C1978.09 172.603 1962.9 168.336 1944.12 168.336C1916.13 168.336 1895.83 177.552 1883.2 195.984C1870.57 214.416 1864.25 239.845 1864.25 272.272ZM2310.17 254.864C2308.12 247.696 2306.08 240.699 2304.03 233.872C2301.98 226.704 2300.1 220.048 2298.4 213.904C2297.03 207.419 2295.67 201.445 2294.3 195.984C2292.93 190.523 2291.91 185.915 2291.23 182.16H2289.18C2288.5 185.915 2287.47 190.523 2286.11 195.984C2285.08 201.445 2283.72 207.419 2282.01 213.904C2280.65 220.389 2278.94 227.216 2276.89 234.384C2275.19 241.211 2273.14 248.208 2270.75 255.376L2221.6 409.488H2170.4L2095.13 135.056H2141.72L2179.61 281.488C2182.34 291.387 2184.9 301.456 2187.29 311.696C2189.68 321.595 2191.73 331.152 2193.44 340.368C2195.48 349.243 2196.85 356.923 2197.53 363.408H2199.58C2200.6 359.312 2201.8 354.192 2203.16 348.048C2204.53 341.904 2205.89 335.419 2207.26 328.592C2208.97 321.765 2210.67 314.939 2212.38 308.112C2214.43 301.285 2216.31 295.141 2218.01 289.68L2266.65 135.056H2315.8L2362.91 289.68C2365.3 297.531 2367.69 305.893 2370.08 314.768C2372.81 323.643 2375.2 332.347 2377.24 340.88C2379.29 349.072 2380.66 356.411 2381.34 362.896H2383.39C2384.07 357.093 2385.27 349.925 2386.97 341.392C2389.02 332.517 2391.24 322.96 2393.63 312.72C2396.36 302.139 2399.09 291.728 2401.82 281.488L2440.22 135.056H2486.3L2410.01 409.488H2357.28L2310.17 254.864Z" fill="url(#paint0_linear_4_16)"/>
<defs>
<linearGradient id="paint0_linear_4_16" x1="1000.02" y1="127.5" x2="1195.66" y2="785.402" gradientUnits="userSpaceOnUse">
<stop stop-color="#E3C6B0"/>
<stop offset="0.927804" stop-color="#3D485A"/>
</linearGradient>
</defs>
</svg>
